<?xml version="1.0" encoding="UTF-8" standalone="no" ?>
<!DOCTYPE svg PUBLIC "-//W3C//DTD SVG 1.1//EN" "http://www.w3.org/Graphics/SVG/1.1/DTD/svg11.dtd">
<svg xmlns="http://www.w3.org/2000/svg" xmlns:xlink="http://www.w3.org/1999/xlink" version="1.1" width="1280" height="1024" viewBox="0 0 1280 1024" xml:space="preserve">
<desc>Created with Fabric.js 5.3.0</desc>
<defs>
</defs>
<g transform="matrix(1 0 0 1 640 512)" id="background-logo"  >
<rect style="stroke: none; stroke-width: 0; stroke-dasharray: none; stroke-linecap: butt; stroke-dashoffset: 0; stroke-linejoin: miter; stroke-miterlimit: 4; fill: rgb(255,255,255); fill-rule: nonzero; opacity: 1;"  paint-order="stroke"  x="-640" y="-512" rx="0" ry="0" width="1280" height="1024" />
</g>
<g transform="matrix(1.9211538461538462 0 0 1.9211538461538462 634.3721514718325 522.4790276677579)" id="text-logo"  >
<g style=""  paint-order="stroke"   >
		<g transform="matrix(1 0 0 1 0 0)" id="text-logo-path-0"  >
<linearGradient id="SVGID_218756" gradientUnits="userSpaceOnUse" gradientTransform="matrix(1 0 0 1 -5.93626446735162 -81.84)"  x1="6.324998741149898" y1="-14.86540000000005" x2="6.324998741149898" y2="109.13459999999995">
<stop offset="0%" style="stop-color:rgb(250,217,97);stop-opacity: 1"/>
<stop offset="100%" style="stop-color:rgb(247,107,28);stop-opacity: 1"/>
</linearGradient>
<filter id="SVGID_218754" y="-27.338752474196486%" height="154.67750494839296%" x="-26.554855472579153%" width="153.1097109451583%" >
	<feGaussianBlur in="SourceAlpha" stdDeviation="2"></feGaussianBlur>
	<feOffset dx="9" dy="2.3404255319148937" result="oBlur" ></feOffset>
	<feFlood flood-color="rgb(84,84,85)" flood-opacity="1"/>
	<feComposite in2="oBlur" operator="in" />
	<feMerge>
		<feMergeNode></feMergeNode>
		<feMergeNode in="SourceGraphic"></feMergeNode>
	</feMerge>
</filter>
<path style="stroke: rgb(0,0,0); stroke-width: 10; stroke-dasharray: none; stroke-linecap: butt; stroke-dashoffset: 0; stroke-linejoin: miter; stroke-miterlimit: 4; fill: url(#SVGID_218756); fill-rule: nonzero; opacity: 1;filter: url(#SVGID_218754);"  paint-order="stroke"  transform=" translate(-93.22686776632418, 38.64174829299512)" d="M 28.16 -64.79 L 28.27 -64.79 Q 32.89 -57.42 34.87 -47.41 L 34.87 -47.41 Q 35.31 -45.32 35.91 -43.17 Q 36.52 -41.03 37.07 -39.16 L 37.07 -39.16 Q 37.95 -36.63 38.77 -34.21 Q 39.6 -31.79 40.7 -29.59 L 40.7 -29.59 Q 41.03 -20.13 44 -13.86 L 44 -13.86 Q 44.22 -13.64 44.22 -13.09 L 44.22 -13.09 Q 44.55 -12.43 44.88 -10.95 Q 45.21 -9.46 45.38 -8.03 Q 45.54 -6.6 45.43 -5.61 Q 45.32 -4.62 44.77 -4.84 L 44.77 -4.84 Q 42.68 -3.3 40.09 -2.31 Q 37.51 -1.32 34.65 -0.66 L 34.65 -0.66 L 33.77 -0.66 Q 32.34 -5.5 30.96 -10.23 Q 29.59 -14.96 28.6 -19.91 L 28.6 -19.91 Q 28.27 -20.24 28.27 -20.79 L 28.27 -20.79 Q 26.07 -21.34 22.93 -22.11 Q 19.8 -22.88 15.95 -23.54 L 15.95 -23.54 L 15.4 -23.54 Q 13.31 -20.68 11.77 -17.38 Q 10.23 -14.08 9.02 -10.34 L 9.02 -10.34 Q 6.49 -3.19 -1.1 -1.54 L -1.1 -1.54 Q -6.38 -1.54 -5.5 -4.84 L -5.5 -4.84 Q -5.28 -5.06 -5.28 -5.61 L -5.28 -5.61 Q -2.09 -11 0.94 -17.32 Q 3.96 -23.65 6.82 -30.69 L 6.82 -30.69 Q 7.92 -32.78 8.74 -34.87 Q 9.57 -36.96 10.45 -39.16 L 10.45 -39.16 Q 12.1 -43.78 13.75 -48.45 Q 15.4 -53.13 17.05 -57.86 L 17.05 -57.86 Q 17.05 -58.19 16.72 -58.41 L 16.72 -58.41 Q 18.81 -60.72 21.61 -62.15 Q 24.42 -63.58 27.72 -64.46 L 27.72 -64.46 Q 28.05 -64.79 28.16 -64.79 L 28.16 -64.79 Z M 21.45 -32.01 L 21.45 -32.01 Q 27.5 -32.78 23.87 -39.16 L 23.87 -39.16 Q 23.65 -39.38 23.43 -39.82 Q 23.21 -40.26 22.77 -40.81 L 22.77 -40.81 L 21.12 -39.16 Q 20.24 -38.28 19.75 -37.29 Q 19.25 -36.3 18.7 -35.09 L 18.7 -35.09 Q 18.7 -32.01 21.45 -32.01 Z M 82.61 -51.37 L 82.61 -50.82 Q 82.61 -45.21 85.91 -42.79 L 85.91 -42.79 Q 88.99 -43.01 91.69 -44.33 Q 94.38 -45.65 96.91 -48.29 L 96.91 -48.29 Q 92.51 -50.16 88.99 -50.98 Q 85.47 -51.81 82.61 -51.37 L 82.61 -51.37 Z M 110.66 -56.87 L 111.43 -56.87 Q 112.31 -56.54 112.31 -54.23 Q 112.31 -51.92 111.98 -49.39 L 111.98 -49.39 L 111.98 -48.84 Q 110.11 -47.96 108.46 -47.13 Q 106.81 -46.31 105.16 -45.32 L 105.16 -45.32 Q 105.16 -44.77 105.38 -44.77 L 105.38 -44.77 Q 108.13 -40.59 110.6 -36.47 Q 113.08 -32.34 115.61 -27.94 L 115.61 -27.94 Q 115.61 -27.94 116.32 -26.4 Q 117.04 -24.86 117.97 -22.61 Q 118.91 -20.35 119.9 -17.77 Q 120.89 -15.18 121.66 -13.09 Q 122.43 -11 122.7 -9.79 Q 122.98 -8.58 122.43 -9.02 L 122.43 -9.02 Q 121.99 -8.8 121.38 -7.65 Q 120.78 -6.49 120.17 -4.9 Q 119.57 -3.3 119.07 -1.54 Q 118.58 0.22 118.36 1.43 L 118.36 1.43 L 118.36 2.31 Q 116.82 2.75 115.66 2.58 Q 114.51 2.42 113.63 1.98 L 113.63 1.98 Q 113.41 1.98 113.41 1.43 L 113.41 1.43 Q 113.19 0.55 112.42 -2.37 Q 111.65 -5.28 110.6 -8.69 Q 109.56 -12.1 108.41 -15.23 Q 107.25 -18.37 106.48 -19.69 L 106.48 -19.69 Q 103.84 -23.65 100.81 -27.34 Q 97.79 -31.02 94.71 -34.54 L 94.71 -34.54 Q 92.51 -36.96 88.11 -36.19 L 88.11 -36.19 Q 85.36 -35.42 83.71 -33.77 L 83.71 -33.77 Q 83.71 -33.44 83.16 -33.44 L 83.16 -33.44 Q 83.38 -26.62 83.71 -18.43 Q 84.04 -10.23 84.48 -0.44 L 84.48 -0.44 L 84.48 0.11 Q 80.41 4.95 74.36 4.18 L 74.36 4.18 L 73.48 4.18 Q 71.06 -2.97 71.61 -12.32 L 71.61 -12.32 Q 72.38 -24.53 69.08 -32.89 L 69.08 -32.89 Q 68.86 -33.44 67.98 -32.89 L 67.98 -32.89 Q 63.47 -37.07 69.63 -40.37 L 69.63 -40.37 L 70.18 -40.37 Q 69.63 -46.75 69.35 -52.14 Q 69.08 -57.53 68.86 -62.37 L 68.86 -62.37 L 68.86 -63.14 Q 67.21 -66 65.17 -69.19 Q 63.14 -72.38 60.61 -75.57 L 60.61 -75.57 L 60.61 -76.12 Q 65.67 -80.74 72.93 -81.84 L 72.93 -81.84 Q 84.92 -61.05 110.66 -56.87 L 110.66 -56.87 Z M 139.81 -30.91 L 139.81 -30.91 Q 140.03 -31.02 140.8 -31.07 Q 141.57 -31.13 142.39 -31.13 Q 143.22 -31.13 143.88 -31.13 Q 144.54 -31.13 144.65 -31.13 L 144.65 -31.13 Q 146.3 -29.59 148.44 -27.83 Q 150.59 -26.07 152.73 -24.14 Q 154.88 -22.22 156.91 -20.24 Q 158.95 -18.26 160.27 -16.28 L 160.27 -16.28 L 160.82 -16.28 Q 165.77 -9.68 175.89 -8.8 L 175.89 -8.8 Q 176.99 -8.8 177.65 -9.4 Q 178.31 -10.01 178.97 -11 L 178.97 -11 Q 184.69 -24.53 172.37 -31.13 L 172.37 -31.13 Q 163.02 -36.3 154.27 -42.02 Q 145.53 -47.74 137.39 -54.23 L 137.39 -54.23 Q 134.64 -62.37 136.84 -61.6 L 136.84 -61.6 Q 142.45 -59.51 151.47 -62.48 L 151.47 -62.48 Q 164.01 -66.55 179.52 -64.9 L 179.52 -64.9 Q 184.8 -64.57 187.77 -61.6 L 187.77 -61.6 Q 186.45 -56.65 182.27 -54.45 L 182.27 -54.45 Q 175.67 -54.01 168.74 -54.4 Q 161.81 -54.78 154.77 -55.88 L 154.77 -55.88 Q 163.68 -50.49 172.09 -44.77 Q 180.51 -39.05 188.54 -33 L 188.54 -33 Q 188.54 -32.78 189.09 -32.78 L 189.09 -32.78 Q 189.97 -31.13 190.69 -29.26 Q 191.4 -27.39 191.84 -25.3 L 191.84 -25.3 L 192.39 -25.3 L 192.39 -19.03 L 192.39 -18.48 Q 191.18 -14.08 189.97 -11.55 L 189.97 -11.55 Q 189.64 -11.33 189.64 -10.78 L 189.64 -10.78 Q 187.77 -8.25 185.46 -6.05 Q 183.15 -3.85 180.29 -2.2 L 180.29 -2.2 Q 174.46 -0.22 167.09 -0.55 L 167.09 -0.55 L 166.32 -0.55 Q 163.13 -2.31 161.59 -1.98 L 161.59 -1.98 L 160.82 -1.98 Q 159.17 -3.41 156.53 -5.67 Q 153.89 -7.92 151.03 -10.29 Q 148.17 -12.65 145.47 -14.79 Q 142.78 -16.94 140.91 -18.15 L 140.91 -18.15 Q 140.58 -21.12 140.36 -23.65 L 140.36 -23.65 Q 140.14 -25.85 139.97 -27.94 Q 139.81 -30.03 139.81 -30.91 Z" stroke-linecap="round" />
</g>
</g>
</g>
</svg>